<svg width="321" height="95" viewBox="0 0 321 95" fill="none" xmlns="http://www.w3.org/2000/svg">
<path d="M0.64 93V0.455994H68.48L68.352 20.808H25.536V37.448H61.312V57.288H25.536V93H0.64ZM94.635 93V26.824H118.699V45.128C119.723 41.5867 121.174 38.344 123.051 35.4C124.971 32.4133 127.403 30.024 130.347 28.232C133.291 26.44 136.811 25.544 140.907 25.544C141.206 25.544 141.44 25.544 141.611 25.544C141.782 25.544 141.867 25.544 141.867 25.544V49.096C141.739 49.0533 141.611 49.032 141.483 49.032C141.398 49.032 141.248 49.0107 141.035 48.968C136.384 48.4987 132.63 48.5413 129.771 49.096C126.955 49.6507 124.8 50.568 123.307 51.848C121.814 53.0853 120.811 54.536 120.299 56.2C119.787 57.8213 119.531 59.5067 119.531 61.256V93H94.635ZM198.382 94.28C191.513 94.28 185.454 92.8933 180.206 90.12C175.001 87.304 170.947 83.3787 168.046 78.344C165.145 73.3093 163.694 67.4427 163.694 60.744C163.694 54.4293 165.017 48.6053 167.662 43.272C170.35 37.9387 174.19 33.6507 179.182 30.408C184.217 27.1653 190.275 25.544 197.358 25.544C204.569 25.544 210.585 27.0373 215.406 30.024C220.227 33.0107 223.833 37.1067 226.222 42.312C228.654 47.4747 229.87 53.32 229.87 59.848V65.608H188.142C188.099 68.2533 188.505 70.408 189.358 72.072C190.211 73.736 191.363 74.952 192.814 75.72C194.307 76.488 195.95 76.872 197.742 76.872C200.003 76.872 202.03 76.4453 203.822 75.592C205.657 74.7387 207.086 73.032 208.11 70.472H230.126C229.443 75.3787 227.502 79.624 224.302 83.208C221.102 86.7493 217.198 89.48 212.59 91.4C208.025 93.32 203.289 94.28 198.382 94.28ZM188.014 51.656H206.894C206.894 49.992 206.531 48.456 205.806 47.048C205.081 45.5973 204.014 44.4453 202.606 43.592C201.198 42.7387 199.449 42.312 197.358 42.312C195.651 42.312 194.094 42.7387 192.686 43.592C191.278 44.4453 190.147 45.5973 189.294 47.048C188.441 48.456 188.014 49.992 188.014 51.656ZM288.617 94.28C281.748 94.28 275.689 92.8933 270.441 90.12C265.236 87.304 261.182 83.3787 258.281 78.344C255.38 73.3093 253.929 67.4427 253.929 60.744C253.929 54.4293 255.252 48.6053 257.897 43.272C260.585 37.9387 264.425 33.6507 269.417 30.408C274.452 27.1653 280.51 25.544 287.593 25.544C294.804 25.544 300.82 27.0373 305.641 30.024C310.462 33.0107 314.068 37.1067 316.457 42.312C318.889 47.4747 320.105 53.32 320.105 59.848V65.608H278.377C278.334 68.2533 278.74 70.408 279.593 72.072C280.446 73.736 281.598 74.952 283.049 75.72C284.542 76.488 286.185 76.872 287.977 76.872C290.238 76.872 292.265 76.4453 294.057 75.592C295.892 74.7387 297.321 73.032 298.345 70.472H320.361C319.678 75.3787 317.737 79.624 314.537 83.208C311.337 86.7493 307.433 89.48 302.825 91.4C298.26 93.32 293.524 94.28 288.617 94.28ZM278.249 51.656H297.129C297.129 49.992 296.766 48.456 296.041 47.048C295.316 45.5973 294.249 44.4453 292.841 43.592C291.433 42.7387 289.684 42.312 287.593 42.312C285.886 42.312 284.329 42.7387 282.921 43.592C281.513 44.4453 280.382 45.5973 279.529 47.048C278.676 48.456 278.249 49.992 278.249 51.656Z" fill="white"/>
</svg>
