<svg width="295" height="100" viewBox="0 0 295 100" fill="none" xmlns="http://www.w3.org/2000/svg">
<rect y="10" width="52.6316" height="52.6316" fill="white"/>
<rect x="26.3684" y="46.8948" width="54.6316" height="44.1053" stroke="white" stroke-width="2"/>
<path d="M125.406 85V41.848H114.894V35.368H125.406V27.688C125.406 23.752 126.398 20.76 128.382 18.712C130.398 16.632 133.406 15.592 137.406 15.592H146.766L146.814 21.88H139.422C137.374 21.88 135.982 22.424 135.246 23.512C134.51 24.6 134.142 26.248 134.142 28.456V35.368H146.334V41.848H134.286V85H125.406ZM156.844 85V35.368H165.292V44.92C166.124 42.552 167.292 40.6 168.796 39.064C170.3 37.496 172.012 36.328 173.932 35.56C175.884 34.792 177.9 34.408 179.98 34.408C180.716 34.408 181.436 34.456 182.14 34.552C182.844 34.648 183.388 34.808 183.772 35.032V43.624C183.292 43.4 182.668 43.256 181.9 43.192C181.164 43.096 180.54 43.048 180.028 43.048C178.044 42.92 176.188 43.048 174.46 43.432C172.732 43.784 171.212 44.408 169.9 45.304C168.588 46.2 167.548 47.384 166.78 48.856C166.044 50.296 165.676 52.056 165.676 54.136V85H156.844ZM214.57 85.96C209.962 85.96 205.898 84.952 202.378 82.936C198.858 80.92 196.106 78.024 194.122 74.248C192.138 70.472 191.146 65.944 191.146 60.664C191.146 55.448 192.042 50.872 193.834 46.936C195.626 43 198.218 39.928 201.61 37.72C205.034 35.512 209.146 34.408 213.946 34.408C218.618 34.408 222.57 35.416 225.802 37.432C229.034 39.448 231.482 42.296 233.146 45.976C234.842 49.624 235.69 53.96 235.69 58.984V62.248H200.122C200.122 65.384 200.634 68.232 201.658 70.792C202.714 73.32 204.298 75.336 206.41 76.84C208.522 78.344 211.194 79.096 214.426 79.096C217.594 79.096 220.314 78.36 222.586 76.888C224.89 75.416 226.362 73.288 227.002 70.504H235.354C234.778 73.864 233.434 76.696 231.322 79C229.242 81.304 226.73 83.048 223.786 84.232C220.874 85.384 217.802 85.96 214.57 85.96ZM200.17 56.248H227.146C227.146 53.4 226.666 50.84 225.706 48.568C224.746 46.264 223.274 44.456 221.29 43.144C219.338 41.8 216.874 41.128 213.898 41.128C210.794 41.128 208.218 41.88 206.17 43.384C204.122 44.856 202.602 46.76 201.61 49.096C200.618 51.4 200.138 53.784 200.17 56.248ZM268.945 85.96C264.337 85.96 260.273 84.952 256.753 82.936C253.233 80.92 250.481 78.024 248.497 74.248C246.513 70.472 245.521 65.944 245.521 60.664C245.521 55.448 246.417 50.872 248.209 46.936C250.001 43 252.593 39.928 255.985 37.72C259.409 35.512 263.521 34.408 268.321 34.408C272.993 34.408 276.945 35.416 280.177 37.432C283.409 39.448 285.857 42.296 287.521 45.976C289.217 49.624 290.065 53.96 290.065 58.984V62.248H254.497C254.497 65.384 255.009 68.232 256.033 70.792C257.089 73.32 258.673 75.336 260.785 76.84C262.897 78.344 265.569 79.096 268.801 79.096C271.969 79.096 274.689 78.36 276.961 76.888C279.265 75.416 280.737 73.288 281.377 70.504H289.729C289.153 73.864 287.809 76.696 285.697 79C283.617 81.304 281.105 83.048 278.161 84.232C275.249 85.384 272.177 85.96 268.945 85.96ZM254.545 56.248H281.521C281.521 53.4 281.041 50.84 280.081 48.568C279.121 46.264 277.649 44.456 275.665 43.144C273.713 41.8 271.249 41.128 268.273 41.128C265.169 41.128 262.593 41.88 260.545 43.384C258.497 44.856 256.977 46.76 255.985 49.096C254.993 51.4 254.513 53.784 254.545 56.248Z" fill="white"/>
</svg>
